# xmcd
#
# Track frame offsets:
#	225
#	13945
#	33177
#	43700
#	52462
#	65612
#	79295
#	95732
#
# Disc length: 1418 seconds
#
# Revision: 0
# Processed by: cddbd v1.4PL0 Copyright (c) Steve Scherf et al.
# Submitted via: EasyCDDAExtractor 4.5.0.2
#
DISCID=72058708
DTITLE=Elvis Presley - Elvis Country
DYEAR=1983
DGENRE=country
TTITLE0=Wholt Lot-Ta Shakin' Goin' On
TTITLE1=Funny How Time Slips Away
TTITLE2=Baby Let's Play House
TTITLE3=Rip It Up
TTITLE4=Lovin' Arms
TTITLE5=You Asked Me To
TTITLE6=She Thinks I Still Care
TTITLE7=Paralyzed
EXTD=
EXTT0=
EXTT1=
EXTT2=
EXTT3=
EXTT4=
EXTT5=
EXTT6=
EXTT7=
PLAYORDER=
